<svg width="40" height="40" viewBox="0 0 40 40" fill="none" xmlns="http://www.w3.org/2000/svg">
<path d="M7.12349 5.47754C5.99423 5.47754 5.01965 6.43559 5.01965 7.56907V18.7157C5.01965 19.6997 5.90966 20.3282 6.84052 20.5366L6.53294 23.92C6.40272 25.4613 8.25984 26.3334 9.36267 25.2487L13.8164 20.8073H23.3267C24.4561 20.8073 25.4183 19.8493 25.4183 18.7157V7.56907C25.4183 6.43572 24.456 5.47754 23.3267 5.47754H7.12349Z" fill="#7346BC"/>
<path d="M10.8561 11.8066C10.5517 11.807 10.2598 11.9278 10.0444 12.1426C9.82901 12.3574 9.7077 12.6486 9.70703 12.9525C9.70684 13.2569 9.82777 13.549 10.0432 13.7644C10.2587 13.9799 10.5511 14.1012 10.8561 14.1016C11.0074 14.1018 11.1573 14.0722 11.2971 14.0146C11.437 13.9569 11.5641 13.8723 11.6711 13.7656C11.7781 13.6589 11.863 13.5321 11.9209 13.3926C11.9788 13.253 12.0086 13.1035 12.0085 12.9525C12.0078 12.648 11.886 12.3563 11.6699 12.1415C11.4539 11.9266 11.1611 11.8062 10.8561 11.8066V11.8066ZM15.1497 11.8066C14.8453 11.807 14.5534 11.9278 14.338 12.1426C14.1226 12.3574 14.0013 12.6486 14.0007 12.9525C14.0005 13.2569 14.1214 13.549 14.3369 13.7644C14.5523 13.9799 14.8447 14.1012 15.1497 14.1016C15.301 14.1018 15.4509 14.0722 15.5908 14.0146C15.7306 13.9569 15.8577 13.8723 15.9647 13.7656C16.0718 13.6589 16.1567 13.5321 16.2145 13.3926C16.2724 13.253 16.3022 13.1035 16.3021 12.9525C16.3014 12.648 16.1797 12.3563 15.9636 12.1415C15.7475 11.9266 15.4548 11.8062 15.1497 11.8066V11.8066ZM19.4434 11.8066C19.1389 11.807 18.847 11.9278 18.6316 12.1426C18.4163 12.3574 18.2949 12.6486 18.2943 12.9525C18.2941 13.2569 18.415 13.549 18.6305 13.7644C18.846 13.9799 19.1383 14.1012 19.4434 14.1016C19.5947 14.1018 19.7445 14.0722 19.8844 14.0146C20.0242 13.9569 20.1513 13.8723 20.2583 13.7656C20.3654 13.6589 20.4503 13.5321 20.5082 13.3926C20.5661 13.253 20.5958 13.1035 20.5957 12.9525C20.595 12.648 20.4733 12.3563 20.2572 12.1415C20.0411 11.9266 19.7484 11.8062 19.4434 11.8066V11.8066Z" fill="#EDEDED"/>
<path d="M16.6708 14.262C15.5415 14.262 14.5792 15.2201 14.5792 16.3535V27.5002C14.5792 28.6337 15.5414 29.5917 16.6708 29.5917H26.1811L30.6348 34.0331C31.7377 35.1178 33.5948 34.246 33.4646 32.7044L33.157 29.321C34.0918 29.1157 34.9778 28.487 34.9778 27.5002V16.3535C34.9778 15.22 34.0156 14.262 32.8863 14.262H16.6708Z" fill="#806CE5"/>
<path d="M20.5566 20.5925C20.4053 20.5923 20.2555 20.6219 20.1156 20.6795C19.9758 20.7372 19.8487 20.8218 19.7417 20.9285C19.6346 21.0352 19.5497 21.162 19.4918 21.3015C19.4339 21.4411 19.4042 21.5906 19.4043 21.7416C19.405 22.0461 19.5267 22.3378 19.7428 22.5526C19.9589 22.7675 20.2516 22.8879 20.5566 22.8875C20.8611 22.8871 21.153 22.7663 21.3684 22.5515C21.5837 22.3367 21.7051 22.0455 21.7057 21.7416C21.7059 21.4372 21.585 21.1451 21.3695 20.9297C21.154 20.7142 20.8617 20.5929 20.5566 20.5925V20.5925ZM24.8503 20.5925C24.699 20.5923 24.5491 20.6219 24.4092 20.6795C24.2694 20.7372 24.1423 20.8218 24.0353 20.9285C23.9282 21.0352 23.8433 21.162 23.7855 21.3015C23.7276 21.4411 23.6978 21.5906 23.6979 21.7416C23.6986 22.0461 23.8203 22.3378 24.0364 22.5526C24.2525 22.7675 24.5452 22.8879 24.8503 22.8875C25.1547 22.8871 25.4466 22.7663 25.662 22.5515C25.8774 22.3367 25.9987 22.0455 25.9993 21.7416C25.9995 21.4372 25.8786 21.1451 25.6631 20.9297C25.4477 20.7142 25.1553 20.5929 24.8503 20.5925V20.5925ZM29.1439 20.5925C28.9926 20.5923 28.8427 20.6219 28.7029 20.6795C28.563 20.7372 28.4359 20.8218 28.3289 20.9285C28.2219 21.0352 28.137 21.162 28.0791 21.3015C28.0212 21.4411 27.9914 21.5906 27.9915 21.7416C27.9922 22.0461 28.114 22.3378 28.3301 22.5526C28.5461 22.7675 28.8389 22.8879 29.1439 22.8875C29.4483 22.8871 29.7402 22.7663 29.9556 22.5515C30.171 22.3367 30.2923 22.0455 30.293 21.7416C30.2932 21.4372 30.1722 21.1451 29.9568 20.9297C29.7413 20.7142 29.4489 20.5929 29.1439 20.5925Z" fill="white"/>
</svg>
