<svg width="24" height="24" viewBox="0 0 24 24" fill="none" xmlns="http://www.w3.org/2000/svg">
<g clip-path="url(#clip0_706_4)">
<path fill-rule="evenodd" clip-rule="evenodd" d="M18.3839 22.779C18.7059 23.007 19.1209 23.064 19.4909 22.924C19.8609 22.783 20.1329 22.467 20.2149 22.084C21.0839 18 23.1919 7.663 23.9829 3.948C24.0429 3.668 23.9429 3.377 23.7229 3.19C23.5029 3.003 23.1979 2.949 22.9259 3.05C18.7329 4.602 5.81991 9.44699 0.54191 11.4C0.20691 11.524 -0.0110904 11.846 -9.04275e-05 12.199C0.0119096 12.553 0.24991 12.86 0.59291 12.963C2.95991 13.671 6.06691 14.656 6.06691 14.656C6.06691 14.656 7.51891 19.041 8.27591 21.271C8.37091 21.551 8.58991 21.771 8.87891 21.847C9.16691 21.922 9.47491 21.843 9.68991 21.64C10.9059 20.492 12.7859 18.717 12.7859 18.717C12.7859 18.717 16.3579 21.336 18.3839 22.779V22.779ZM7.37391 14.102L9.05291 19.64L9.42591 16.133C9.42591 16.133 15.9129 10.282 19.6109 6.947C19.7189 6.849 19.7339 6.685 19.6439 6.57C19.5549 6.455 19.3909 6.428 19.2679 6.506C14.9819 9.243 7.37391 14.102 7.37391 14.102Z" fill="#806CE5"/>
</g>
<defs>
<clipPath id="clip0_706_4">
<rect width="24" height="24" fill="white"/>
</clipPath>
</defs>
</svg>
