<svg width="100" height="100" viewBox="0 0 100 100" fill="none" xmlns="http://www.w3.org/2000/svg">
<circle cx="50" cy="50" r="50" fill="white"/>
<path d="M49.1041 60.9073H51.315C51.315 60.9073 51.9834 60.8302 52.3233 60.447C52.6379 60.0951 52.6263 59.4348 52.6263 59.4348C52.6263 59.4348 52.5824 56.3427 53.9607 55.8872C55.3182 55.439 57.062 58.8757 58.9098 60.1988C60.3067 61.1989 61.3682 60.9796 61.3682 60.9796L66.3104 60.9073C66.3104 60.9073 68.8959 60.741 67.6702 58.6226C67.5708 58.4491 66.9556 57.0561 63.9954 54.193C60.8964 51.1949 61.3127 51.6817 65.0453 46.4978C67.3187 43.3407 68.2276 41.4126 67.9431 40.5884C67.6725 39.8027 66.0005 40.01 66.0005 40.01L60.4408 40.0437C60.4408 40.0437 60.0291 39.9859 59.7216 40.1763C59.4232 40.3643 59.2313 40.7981 59.2313 40.7981C59.2313 40.7981 58.3502 43.2418 57.1753 45.3193C54.6984 49.7031 53.7063 49.9345 53.3016 49.6621C52.3603 49.0283 52.5962 47.1123 52.5962 45.7531C52.5962 41.5042 53.2137 39.7329 51.3913 39.2749C50.7854 39.1231 50.3414 39.0219 48.7942 39.005C46.8099 38.9833 45.1286 39.0123 44.1781 39.4967C43.5444 39.8196 43.0565 40.5402 43.3548 40.5812C43.7225 40.6318 44.5551 40.815 44.9968 41.4416C45.568 42.2489 45.5472 44.0661 45.5472 44.0661C45.5472 44.0661 45.8756 49.0669 44.7817 49.6887C44.0301 50.1152 43.001 49.2452 40.7924 45.2663C39.6615 43.2298 38.8058 40.9764 38.8058 40.9764C38.8058 40.9764 38.6416 40.5571 38.3479 40.3329C37.9917 40.0606 37.4922 39.9739 37.4922 39.9739L32.2054 40.0076C32.2054 40.0076 31.4122 40.0317 31.1208 40.3908C30.8618 40.7113 31.1 41.3717 31.1 41.3717C31.1 41.3717 35.2396 51.4624 39.9251 56.55C44.2244 61.2134 49.1041 60.9073 49.1041 60.9073Z" fill="#1E88E5"/>
</svg>
